<?xml version="1.0" standalone="no"?>
<!DOCTYPE svg PUBLIC "-//W3C//DTD SVG 20010904//EN"
 "http://www.w3.org/TR/2001/REC-SVG-20010904/DTD/svg10.dtd">
<svg version="1.0" xmlns="http://www.w3.org/2000/svg"
 width="512.000000pt" height="512.000000pt" viewBox="0 0 512.000000 512.000000"
 preserveAspectRatio="xMidYMid meet">

<g transform="translate(0.000000,512.000000) scale(0.100000,-0.100000)"
fill="#fff" stroke="none">
<path d="M2157 4970 c-64 -134 -67 -144 -76 -247 -5 -60 -9 -117 -8 -128 1
-18 -380 -1314 -389 -1324 -3 -3 -38 5 -79 17 -101 30 -130 29 -166 -7 -23
-24 -29 -38 -29 -74 0 -28 -6 -49 -16 -58 -32 -27 -64 -114 -170 -476 l-109
-373 -108 0 -107 0 2 363 3 362 140 5 139 5 26 90 c15 50 35 105 45 123 l19
32 -44 47 c-94 101 -395 403 -401 403 -4 0 -36 -39 -72 -87 -36 -49 -111 -133
-166 -188 l-101 -100 0 -527 0 -528 -71 0 -70 0 3 -793 c4 -772 4 -794 25
-868 72 -255 233 -446 466 -554 164 -76 -1 -69 1857 -73 1496 -2 1673 -1 1745
13 267 54 480 221 595 469 80 169 80 167 80 1039 l0 767 -70 0 -70 0 0 525 0
525 -87 -88 c-91 -91 -209 -171 -308 -208 -30 -11 -43 -20 -32 -22 16 -3 17
-29 17 -368 l0 -364 -555 0 c-305 0 -555 2 -555 5 0 2 122 170 271 372 192
262 275 367 287 365 9 -2 73 -6 142 -9 106 -4 139 -2 215 16 229 55 426 211
525 416 64 132 75 182 75 340 0 159 -5 188 -39 210 -47 31 -65 15 -248 -216
-95 -120 -180 -219 -188 -219 -17 0 -422 79 -426 83 -3 3 -148 323 -169 374
l-14 32 122 153 c214 270 227 288 227 317 0 61 -67 76 -209 46 -238 -50 -451
-219 -549 -435 -90 -200 -96 -439 -15 -635 l26 -63 -339 -404 c-187 -222 -345
-411 -353 -421 -13 -16 -4 -28 91 -125 103 -105 118 -124 138 -176 9 -25 8
-26 -29 -26 -34 0 -40 4 -52 33 -7 20 -197 218 -493 515 l-481 483 -13 -32
c-18 -43 -12 -53 39 -68 62 -19 94 -44 118 -94 26 -53 26 -109 2 -162 -10 -22
-21 -67 -25 -100 -4 -33 -27 -125 -51 -205 l-44 -145 112 -112 112 -113 -192
0 c-150 0 -191 3 -188 12 2 7 41 136 85 287 63 213 82 287 81 334 0 50 4 65
26 91 20 24 24 37 19 65 -8 50 -34 71 -128 102 -46 15 -82 31 -82 36 8 44 390
1312 399 1323 7 8 35 58 63 110 48 92 50 100 67 243 11 88 14 151 9 156 -8 7
-143 51 -157 51 -2 0 -34 -63 -70 -140z m-628 -1994 c29 -15 51 -53 51 -89 1
-12 -36 -149 -82 -304 l-83 -283 -107 0 c-60 0 -108 3 -108 7 0 8 106 369 156
531 31 99 39 115 67 132 38 24 68 25 106 6z m357 -120 c23 -23 34 -43 34 -62
0 -16 -31 -132 -69 -259 l-68 -230 -111 -3 -111 -3 9 28 c5 15 41 133 79 261
38 128 76 244 86 258 35 54 103 58 151 10z"/>
<path d="M1125 4660 c-122 -26 -272 -98 -379 -182 -27 -21 -55 -38 -63 -38
-47 0 -200 -134 -237 -207 -11 -23 -24 -33 -39 -33 -53 0 -130 -54 -268 -189
l-140 -136 220 -219 220 -220 22 20 c12 10 71 73 132 139 115 126 167 202 167
247 0 14 6 28 13 31 6 3 141 -124 299 -281 l286 -285 31 26 c38 31 86 42 149
33 92 -13 85 -17 106 57 l20 68 -322 322 -323 322 16 40 c25 65 93 161 151
213 71 64 169 111 269 130 53 10 86 21 98 34 34 40 18 63 -59 90 -66 23 -296
34 -369 18z"/>
<path d="M4570 4255 l0 -165 -224 -2 -225 -3 40 -90 c23 -49 44 -93 48 -98 9
-9 260 -59 273 -55 6 2 78 89 161 193 168 210 199 235 289 235 l48 0 0 75 0
75 -205 0 -205 0 0 -165z"/>
<path d="M1547 3948 c78 -78 145 -140 148 -137 3 3 20 58 39 122 19 64 37 125
41 137 6 20 3 20 -182 20 l-188 0 142 -142z"/>
<path d="M2251 4068 c-5 -13 -41 -135 -82 -271 l-73 -248 260 -260 259 -259
140 0 140 0 228 270 c125 148 227 277 227 286 0 9 -10 48 -22 87 -20 63 -23
93 -23 245 l0 172 -523 0 -522 0 -9 -22z"/>
</g>
</svg>
