<?xml version="1.0" encoding="UTF-8"?>
<!DOCTYPE svg PUBLIC "-//W3C//DTD SVG 1.1//EN" "http://www.w3.org/Graphics/SVG/1.1/DTD/svg11.dtd">
<svg xmlns="http://www.w3.org/2000/svg" version="1.1" width="512px" height="512px" style="shape-rendering:geometricPrecision; text-rendering:geometricPrecision; image-rendering:optimizeQuality; fill-rule:evenodd; clip-rule:evenodd" xmlns:xlink="http://www.w3.org/1999/xlink">
<g><path style="opacity:0.945" fill="#fff" d="M 263.5,-0.5 C 267.833,-0.5 272.167,-0.5 276.5,-0.5C 321.538,6.45556 362.371,23.4556 399,50.5C 403.123,61.1153 399.623,66.6153 388.5,67C 377.199,60.3469 365.866,53.6802 354.5,47C 330.194,34.398 304.527,25.898 277.5,21.5C 272.837,57.4691 268.67,93.4691 265,129.5C 320.828,143.334 358.162,177.334 377,231.5C 378.647,237.084 379.813,242.751 380.5,248.5C 416.838,245.233 453.171,241.9 489.5,238.5C 483.627,196.7 468.46,158.7 444,124.5C 442.359,112.233 447.526,107.733 459.5,111C 478.177,135.183 492.01,162.016 501,191.5C 505.479,206.748 508.979,222.081 511.5,237.5C 511.5,242.5 511.5,247.5 511.5,252.5C 508.924,255.623 505.59,257.457 501.5,258C 492.178,259.032 482.845,259.866 473.5,260.5C 475.51,357.007 435.844,430.507 354.5,481C 324.159,497.949 291.826,508.116 257.5,511.5C 243.5,511.5 229.5,511.5 215.5,511.5C 134.124,501.9 72.2909,462.233 30,392.5C 13.2598,362.452 3.09313,330.452 -0.5,296.5C -0.5,281.833 -0.5,267.167 -0.5,252.5C 11.6399,161.021 59.3066,95.5211 142.5,56C 178.357,41.0794 215.691,34.9127 254.5,37.5C 255.483,27.4859 256.65,17.4859 258,7.5C 258.625,3.89071 260.458,1.22405 263.5,-0.5 Z M 235.5,57.5 C 240.772,58.4002 246.105,58.7335 251.5,58.5C 248.75,82.1681 245.917,105.835 243,129.5C 242.104,134.949 242.437,140.282 244,145.5C 245.8,147.317 247.966,148.484 250.5,149C 303.841,157.589 339.341,187.422 357,238.5C 359.308,247.042 360.975,255.709 362,264.5C 362.785,266.286 363.951,267.786 365.5,269C 371.053,270.57 376.719,270.903 382.5,270C 405.751,267.796 428.918,265.296 452,262.5C 454.477,343.376 422.977,407.21 357.5,454C 296.344,493.055 231.344,501.055 162.5,478C 80.0238,444.176 32.8572,383.01 21,294.5C 16.2032,208.935 48.7032,141.768 118.5,93C 154.321,70.4645 193.321,58.6312 235.5,57.5 Z M 235.5,188.5 C 281.978,191.813 310.478,216.146 321,261.5C 324.872,303.602 308.038,334.102 270.5,353C 232.196,366.966 199.029,359.132 171,329.5C 151.963,305.313 146.629,278.313 155,248.5C 169.327,211.599 196.16,191.599 235.5,188.5 Z M 231.5,260.5 C 245.652,259.151 251.819,265.485 250,279.5C 244.135,289.246 236.301,291.08 226.5,285C 219.906,275.014 221.573,266.848 231.5,260.5 Z"/></g>
<g><path style="opacity:0.942" fill="#fff" d="M 303.5,52.5 C 307.936,52.2101 312.27,52.7101 316.5,54C 386.532,81.6991 433.699,131.199 458,202.5C 459.099,211.778 454.932,216.612 445.5,217C 434.51,218.415 423.51,219.749 412.5,221C 407.382,221.888 402.382,221.555 397.5,220C 396.667,219.167 395.833,218.333 395,217.5C 376.405,169.237 343.238,135.071 295.5,115C 292.82,112.637 291.487,109.637 291.5,106C 293.628,89.7701 296.128,73.6034 299,57.5C 300.366,55.6383 301.866,53.9717 303.5,52.5 Z M 316.5,77.5 C 371.929,100.929 410.929,140.596 433.5,196.5C 426.003,198.04 418.503,199.373 411,200.5C 391.636,154.74 359.469,121.407 314.5,100.5C 314.167,100 313.833,99.5 313.5,99C 314.92,91.8908 315.92,84.7242 316.5,77.5 Z"/></g>
<g><path style="opacity:0.89" fill="#fff" d="M 420.5,75.5 C 430.649,74.1556 435.482,78.489 435,88.5C 431.846,95.4943 426.679,97.661 419.5,95C 414.918,91.6058 413.418,87.1058 415,81.5C 416.36,78.9774 418.193,76.9774 420.5,75.5 Z"/></g>
<g><path style="opacity:0.924" fill="#fff" d="M 146.5,106.5 C 150.308,106.163 153.974,106.663 157.5,108C 167.401,117.231 176.567,127.064 185,137.5C 189.333,146.531 186.666,152.198 177,154.5C 174.747,154.369 172.581,153.869 170.5,153C 161.449,143.071 152.283,133.238 143,123.5C 139.021,116.694 140.188,111.027 146.5,106.5 Z"/></g>
<g><path style="opacity:0.945" fill="#fff" d="M 221.5,168.5 C 276.615,164.84 315.115,188.173 337,238.5C 350.602,284.265 340.102,323.432 305.5,356C 275.039,380.08 241.039,386.747 203.5,376C 162.641,361.142 138.475,332.309 131,289.5C 126.763,243.814 143.596,208.314 181.5,183C 194.208,176.045 207.542,171.212 221.5,168.5 Z M 235.5,188.5 C 196.16,191.599 169.327,211.599 155,248.5C 146.629,278.313 151.963,305.313 171,329.5C 199.029,359.132 232.196,366.966 270.5,353C 308.038,334.102 324.872,303.602 321,261.5C 310.478,216.146 281.978,191.813 235.5,188.5 Z M 231.5,260.5 C 221.573,266.848 219.906,275.014 226.5,285C 236.301,291.08 244.135,289.246 250,279.5C 251.819,265.485 245.652,259.151 231.5,260.5 Z"/></g>
<g><path style="opacity:0.933" fill="#fff" d="M 61.5,212.5 C 76.5559,212.448 91.5559,213.281 106.5,215C 113.601,220.273 114.267,226.273 108.5,233C 106.275,234.131 103.942,234.964 101.5,235.5C 87.87,234.244 74.2033,233.411 60.5,233C 54.059,228.73 52.559,223.23 56,216.5C 57.8121,215.023 59.6455,213.69 61.5,212.5 Z"/></g>
<g><path style="opacity:0.943" fill="#fff" d="M 227.5,239.5 C 258.644,237.81 273.144,252.476 271,283.5C 263.779,303.367 249.613,311.867 228.5,309C 214.775,305.609 205.942,297.109 202,283.5C 198.945,261.924 207.445,247.258 227.5,239.5 Z M 231.5,260.5 C 221.573,266.848 219.906,275.014 226.5,285C 236.301,291.08 244.135,289.246 250,279.5C 251.819,265.485 245.652,259.151 231.5,260.5 Z"/></g>
<g><path style="opacity:0.934" fill="#fff" d="M 369.5,313.5 C 383.8,314.696 398.133,315.529 412.5,316C 418.941,320.27 420.441,325.77 417,332.5C 415.421,334.041 413.587,335.208 411.5,336C 396.449,336.489 381.449,335.822 366.5,334C 360.607,330.179 359.107,325.012 362,318.5C 364.17,316.177 366.67,314.51 369.5,313.5 Z"/></g>
<g><path style="opacity:0.924" fill="#fff" d="M 104.5,323.5 C 115.11,324.713 118.61,330.38 115,340.5C 105.071,349.551 95.2381,358.717 85.5,368C 78.8396,372.031 73.3396,370.864 69,364.5C 68.1628,360.705 68.4961,357.039 70,353.5C 80.5806,342.175 92.0806,332.175 104.5,323.5 Z"/></g>
<g><path style="opacity:0.924" fill="#fff" d="M 292.5,394.5 C 295.941,394.301 299.274,394.801 302.5,396C 311.551,405.929 320.717,415.762 330,425.5C 333.601,431.062 333.101,436.229 328.5,441C 324.167,443 319.833,443 315.5,441C 305.599,431.769 296.433,421.936 288,411.5C 284.351,404.427 285.851,398.761 292.5,394.5 Z"/></g>
<g><path style="opacity:0.933" fill="#fff" d="M 183.5,398.5 C 191.682,397.681 196.349,401.348 197.5,409.5C 196.244,423.13 195.411,436.797 195,450.5C 189.883,457.788 183.883,458.788 177,453.5C 174.966,448.927 174.133,444.094 174.5,439C 174.836,427.456 175.669,415.956 177,404.5C 178.494,401.686 180.66,399.686 183.5,398.5 Z"/></g>
</svg>
