<?xml version="1.0" encoding="UTF-8"?>
<!DOCTYPE svg PUBLIC "-//W3C//DTD SVG 1.1//EN" "http://www.w3.org/Graphics/SVG/1.1/DTD/svg11.dtd">
<svg xmlns="http://www.w3.org/2000/svg" version="1.1" width="512px" height="512px" style="shape-rendering:geometricPrecision; text-rendering:geometricPrecision; image-rendering:optimizeQuality; fill-rule:evenodd; clip-rule:evenodd" xmlns:xlink="http://www.w3.org/1999/xlink">
<g><path style="opacity:0.95" fill="#fff" d="M 511.5,252.5 C 511.5,291.5 511.5,330.5 511.5,369.5C 508.25,379.247 501.583,385.413 491.5,388C 469.449,388.956 447.449,388.623 425.5,387C 416.295,383.13 410.795,376.297 409,366.5C 408.5,356.839 408.334,347.172 408.5,337.5C 306.5,337.5 204.5,337.5 102.5,337.5C 102.666,347.172 102.5,356.839 102,366.5C 100.205,376.297 94.7054,383.13 85.5,387C 63.5507,388.623 41.5507,388.956 19.5,388C 9.41684,385.413 2.75018,379.247 -0.5,369.5C -0.5,330.5 -0.5,291.5 -0.5,252.5C 2.98151,244.186 8.98151,238.353 17.5,235C 39.504,233.012 61.504,233.012 83.5,235C 93.8819,238.048 100.049,244.881 102,255.5C 102.5,265.494 102.666,275.494 102.5,285.5C 113.5,285.5 124.5,285.5 135.5,285.5C 135.5,280.167 135.5,274.833 135.5,269.5C 128.426,269.839 121.426,269.339 114.5,268C 107.833,262.667 107.833,257.333 114.5,252C 127.167,251.667 139.833,251.333 152.5,251C 139.833,245.333 127.167,239.667 114.5,234C 107.833,228.667 107.833,223.333 114.5,218C 115.833,217.667 117.167,217.333 118.5,217C 129.167,216.667 139.833,216.333 150.5,216C 138.047,210.607 125.714,204.94 113.5,199C 108.978,194.71 108.645,190.21 112.5,185.5C 113.912,184.194 115.579,183.36 117.5,183C 128.833,182.667 140.167,182.333 151.5,182C 138.833,176.333 126.167,170.667 113.5,165C 108.717,160.589 108.383,155.923 112.5,151C 113.833,150.333 115.167,149.667 116.5,149C 122.825,148.5 129.158,148.334 135.5,148.5C 135.334,142.158 135.5,135.825 136,129.5C 136.685,126.943 138.185,125.109 140.5,124C 151.833,123.333 163.167,123.333 174.5,124C 175.667,125.167 176.833,126.333 178,127.5C 179.384,134.411 179.884,141.411 179.5,148.5C 185.842,148.334 192.175,148.5 198.5,149C 204.612,152.247 206.112,157.08 203,163.5C 201.745,164.211 200.579,165.044 199.5,166C 187.167,166.333 174.833,166.667 162.5,167C 173.833,172 185.167,177 196.5,182C 203.339,184.157 205.839,188.657 204,195.5C 203.167,197.667 201.667,199.167 199.5,200C 187.167,200.333 174.833,200.667 162.5,201C 175.167,206.667 187.833,212.333 200.5,218C 204.13,221.05 205.297,224.883 204,229.5C 203.167,231.667 201.667,233.167 199.5,234C 186.833,234.333 174.167,234.667 161.5,235C 175.802,240.568 189.635,247.068 203,254.5C 205.504,259.646 204.671,264.146 200.5,268C 193.574,269.339 186.574,269.839 179.5,269.5C 179.5,274.833 179.5,280.167 179.5,285.5C 230.167,285.5 280.833,285.5 331.5,285.5C 331.5,280.167 331.5,274.833 331.5,269.5C 324.426,269.839 317.426,269.339 310.5,268C 305.547,263.357 305.213,258.357 309.5,253C 322.666,246.612 335.999,240.612 349.5,235C 336.833,234.667 324.167,234.333 311.5,234C 306.931,231.459 305.431,227.625 307,222.5C 307.785,220.714 308.951,219.214 310.5,218C 323.167,212.333 335.833,206.667 348.5,201C 336.167,200.667 323.833,200.333 311.5,200C 306.845,197.103 305.345,192.937 307,187.5C 308.167,186.333 309.333,185.167 310.5,184C 323.167,178.333 335.833,172.667 348.5,167C 336.167,166.667 323.833,166.333 311.5,166C 306.845,163.103 305.345,158.937 307,153.5C 308.227,151.274 310.061,149.774 312.5,149C 318.825,148.5 325.158,148.334 331.5,148.5C 331.116,141.411 331.616,134.411 333,127.5C 334.167,126.333 335.333,125.167 336.5,124C 347.833,123.333 359.167,123.333 370.5,124C 372.815,125.109 374.315,126.943 375,129.5C 375.5,135.825 375.666,142.158 375.5,148.5C 381.842,148.334 388.175,148.5 394.5,149C 401.991,153.136 402.991,158.469 397.5,165C 384.833,170.667 372.167,176.333 359.5,182C 370.833,182.333 382.167,182.667 393.5,183C 398.007,184.339 400.674,187.339 401.5,192C 400.686,194.627 399.353,196.96 397.5,199C 385.286,204.94 372.953,210.607 360.5,216C 371.167,216.333 381.833,216.667 392.5,217C 400.061,218.818 402.561,223.318 400,230.5C 398.833,231.667 397.667,232.833 396.5,234C 383.833,239.667 371.167,245.333 358.5,251C 371.167,251.333 383.833,251.667 396.5,252C 403.167,257.333 403.167,262.667 396.5,268C 389.574,269.339 382.574,269.839 375.5,269.5C 375.5,274.833 375.5,280.167 375.5,285.5C 386.5,285.5 397.5,285.5 408.5,285.5C 408.334,275.494 408.5,265.494 409,255.5C 410.951,244.881 417.118,238.048 427.5,235C 449.496,233.012 471.496,233.012 493.5,235C 502.018,238.353 508.018,244.186 511.5,252.5 Z M 153.5,141.5 C 156.167,141.5 158.833,141.5 161.5,141.5C 161.5,143.833 161.5,146.167 161.5,148.5C 158.833,148.5 156.167,148.5 153.5,148.5C 153.5,146.167 153.5,143.833 153.5,141.5 Z M 349.5,141.5 C 352.167,141.5 354.833,141.5 357.5,141.5C 357.5,143.833 357.5,146.167 357.5,148.5C 354.833,148.5 352.167,148.5 349.5,148.5C 349.5,146.167 349.5,143.833 349.5,141.5 Z M 25.5,251.5 C 42.5033,251.333 59.5033,251.5 76.5,252C 80.5271,252.427 83.0271,254.594 84,258.5C 84.4983,261.817 84.665,265.15 84.5,268.5C 77.4921,268.334 70.4921,268.5 63.5,269C 56.8575,274.38 56.8575,279.713 63.5,285C 70.4112,286.384 77.4112,286.884 84.5,286.5C 84.5,291.833 84.5,297.167 84.5,302.5C 77.4921,302.334 70.4921,302.5 63.5,303C 56.8816,308.426 56.8816,313.759 63.5,319C 70.4112,320.384 77.4112,320.884 84.5,320.5C 84.5,325.833 84.5,331.167 84.5,336.5C 77.825,336.334 71.1583,336.5 64.5,337C 57.5423,341.509 56.8756,346.842 62.5,353C 69.7458,354.391 77.0791,354.891 84.5,354.5C 84.7662,358.605 84.2662,362.605 83,366.5C 81.786,368.049 80.286,369.215 78.5,370C 69.3333,370.167 60.1667,370.333 51,370.5C 40.7638,370.63 30.5972,370.13 20.5,369C 19.2986,368.097 18.4652,366.931 18,365.5C 17.5014,361.848 17.3347,358.182 17.5,354.5C 24.5888,354.884 31.5888,354.384 38.5,353C 44.1023,347.236 43.769,341.903 37.5,337C 30.8417,336.5 24.175,336.334 17.5,336.5C 17.5,331.167 17.5,325.833 17.5,320.5C 24.5888,320.884 31.5888,320.384 38.5,319C 44.0935,313.19 43.7602,307.856 37.5,303C 30.8417,302.5 24.175,302.334 17.5,302.5C 17.5,297.167 17.5,291.833 17.5,286.5C 24.5736,286.839 31.5736,286.339 38.5,285C 42.6706,281.146 43.5039,276.646 41,271.5C 40.0975,270.299 38.9308,269.465 37.5,269C 30.8417,268.5 24.175,268.334 17.5,268.5C 17.3345,264.486 17.5012,260.486 18,256.5C 19.9133,253.72 22.4133,252.053 25.5,251.5 Z M 434.5,251.5 C 452.889,251.053 471.222,251.553 489.5,253C 490.667,254.167 491.833,255.333 493,256.5C 493.499,260.486 493.666,264.486 493.5,268.5C 486.825,268.334 480.158,268.5 473.5,269C 468.931,271.541 467.431,275.375 469,280.5C 469.785,282.286 470.951,283.786 472.5,285C 479.426,286.339 486.426,286.839 493.5,286.5C 493.5,291.833 493.5,297.167 493.5,302.5C 486.825,302.334 480.158,302.5 473.5,303C 467.24,307.856 466.907,313.19 472.5,319C 479.411,320.384 486.411,320.884 493.5,320.5C 493.5,325.833 493.5,331.167 493.5,336.5C 486.825,336.334 480.158,336.5 473.5,337C 467.231,341.903 466.898,347.236 472.5,353C 479.411,354.384 486.411,354.884 493.5,354.5C 493.665,358.182 493.499,361.848 493,365.5C 492.535,366.931 491.701,368.097 490.5,369C 480.403,370.13 470.236,370.63 460,370.5C 450.833,370.333 441.667,370.167 432.5,370C 430.714,369.215 429.214,368.049 428,366.5C 426.734,362.605 426.234,358.605 426.5,354.5C 433.921,354.891 441.254,354.391 448.5,353C 454.206,346.808 453.54,341.475 446.5,337C 439.842,336.5 433.175,336.334 426.5,336.5C 426.5,331.167 426.5,325.833 426.5,320.5C 433.589,320.884 440.589,320.384 447.5,319C 454.118,313.759 454.118,308.426 447.5,303C 440.508,302.5 433.508,302.334 426.5,302.5C 426.5,297.167 426.5,291.833 426.5,286.5C 433.589,286.884 440.589,286.384 447.5,285C 454.143,279.713 454.143,274.38 447.5,269C 440.508,268.5 433.508,268.334 426.5,268.5C 425.835,263.266 426.835,258.432 429.5,254C 431.315,253.243 432.981,252.41 434.5,251.5 Z M 153.5,269.5 C 156.167,269.5 158.833,269.5 161.5,269.5C 161.5,274.833 161.5,280.167 161.5,285.5C 158.833,285.5 156.167,285.5 153.5,285.5C 153.5,280.167 153.5,274.833 153.5,269.5 Z M 349.5,269.5 C 352.167,269.5 354.833,269.5 357.5,269.5C 357.5,274.833 357.5,280.167 357.5,285.5C 354.833,285.5 352.167,285.5 349.5,285.5C 349.5,280.167 349.5,274.833 349.5,269.5 Z M 102.5,303.5 C 204.5,303.5 306.5,303.5 408.5,303.5C 408.5,308.833 408.5,314.167 408.5,319.5C 306.5,319.5 204.5,319.5 102.5,319.5C 102.5,314.167 102.5,308.833 102.5,303.5 Z"/></g>
</svg>
