<?xml version="1.0" encoding="UTF-8"?>
<!DOCTYPE svg PUBLIC "-//W3C//DTD SVG 1.1//EN" "http://www.w3.org/Graphics/SVG/1.1/DTD/svg11.dtd">
<svg xmlns="http://www.w3.org/2000/svg" version="1.1" width="512px" height="512px" style="shape-rendering:geometricPrecision; text-rendering:geometricPrecision; image-rendering:optimizeQuality; fill-rule:evenodd; clip-rule:evenodd" xmlns:xlink="http://www.w3.org/1999/xlink">
<g><path style="opacity:0.929" fill="#fff" d="M 511.5,132.5 C 511.5,155.167 511.5,177.833 511.5,200.5C 509.11,207.393 504.443,212.226 497.5,215C 467.54,216.294 437.54,216.961 407.5,217C 392.454,235.866 374.121,239.866 352.5,229C 347.833,225.667 343.833,221.667 340.5,217C 335.177,216.501 329.844,216.334 324.5,216.5C 324.666,221.844 324.499,227.177 324,232.5C 323.394,235.548 321.894,238.048 319.5,240C 309.933,241.282 300.266,241.949 290.5,242C 283.97,246.696 277.303,251.196 270.5,255.5C 277.698,260.53 285.031,265.363 292.5,270C 362.5,270.333 432.5,270.667 502.5,271C 506.525,271.873 509.525,274.039 511.5,277.5C 511.5,291.5 511.5,305.5 511.5,319.5C 509.084,323.736 505.418,326.236 500.5,327C 465.167,327.333 429.833,327.667 394.5,328C 375.167,339.333 355.833,350.667 336.5,362C 339.83,366.163 343.496,369.996 347.5,373.5C 351.352,369.814 355.352,366.314 359.5,363C 364.664,360.393 369.664,360.393 374.5,363C 382.372,371.203 389.872,379.703 397,388.5C 399.226,393.686 398.893,398.686 396,403.5C 391.5,407.333 387,411.167 382.5,415C 390.871,423.703 398.871,432.703 406.5,442C 410.833,444.333 415.167,446.667 419.5,449C 421.741,450.739 423.408,452.906 424.5,455.5C 444.592,452.932 453.925,461.599 452.5,481.5C 457.179,481.334 461.845,481.501 466.5,482C 471.617,483.732 473.45,487.232 472,492.5C 471.167,494.667 469.667,496.167 467.5,497C 324.5,497.667 181.5,497.667 38.5,497C 33.7762,494.565 32.2762,490.731 34,485.5C 34.8333,484.667 35.6667,483.833 36.5,483C 43.7458,481.609 51.0791,481.109 58.5,481.5C 57.0746,461.599 66.4079,452.932 86.5,455.5C 87.5922,452.906 89.2589,450.739 91.5,449C 130.996,426.753 170.33,404.253 209.5,381.5C 178.5,363.667 147.5,345.833 116.5,328C 81.1667,327.667 45.8333,327.333 10.5,327C 5.58239,326.236 1.91572,323.736 -0.5,319.5C -0.5,305.5 -0.5,291.5 -0.5,277.5C 1.47542,274.039 4.47542,271.873 8.5,271C 26.2576,270.028 43.9243,270.361 61.5,272C 65.4227,276.261 65.4227,280.594 61.5,285C 45.8909,286.437 30.2243,286.937 14.5,286.5C 14.5,294.833 14.5,303.167 14.5,311.5C 175.167,311.5 335.833,311.5 496.5,311.5C 496.5,303.167 496.5,294.833 496.5,286.5C 361.166,286.667 225.833,286.5 90.5,286C 83.6531,284.134 81.8197,279.968 85,273.5C 85.9025,272.299 87.0692,271.465 88.5,271C 131.833,270.667 175.167,270.333 218.5,270C 225.969,265.363 233.302,260.53 240.5,255.5C 233.697,251.196 227.03,246.696 220.5,242C 210.734,241.949 201.067,241.282 191.5,240C 189.106,238.048 187.606,235.548 187,232.5C 186.501,227.177 186.334,221.844 186.5,216.5C 172.829,216.333 159.163,216.5 145.5,217C 129.568,236.42 110.568,240.087 88.5,228C 84.9842,224.651 81.6508,221.151 78.5,217.5C 69.1845,216.668 59.8511,216.168 50.5,216C 45.4805,215.327 40.8139,213.66 36.5,211C 25.7012,201.87 15.2012,192.37 5,182.5C 3.12073,178.741 1.28739,175.075 -0.5,171.5C -0.5,143.5 -0.5,115.5 -0.5,87.5C 2.58294,78.5826 8.58294,72.4159 17.5,69C 38.4493,67.7123 59.4493,67.0456 80.5,67C 94.6499,55.0939 108.983,43.4272 123.5,32C 139.435,22.0214 156.768,16.0214 175.5,14C 208.167,13.3333 240.833,13.3333 273.5,14C 296.697,16.2826 317.363,24.6159 335.5,39C 347.544,49.3789 359.877,59.3789 372.5,69C 409.074,76.1434 445.074,85.4767 480.5,97C 496.779,103.771 507.113,115.604 511.5,132.5 Z M 173.5,29.5 C 186.5,29.5 199.5,29.5 212.5,29.5C 212.5,42.1667 212.5,54.8333 212.5,67.5C 188.833,67.5 165.167,67.5 141.5,67.5C 141.168,58.1429 141.502,48.8096 142.5,39.5C 152.503,34.7573 162.837,31.4239 173.5,29.5 Z M 340.5,64.5 C 330.616,62.5045 320.616,62.0045 310.5,63C 308.156,63.8372 306.156,65.1706 304.5,67C 279.169,67.5 253.836,67.6666 228.5,67.5C 228.5,54.8333 228.5,42.1667 228.5,29.5C 272.19,22.0693 309.523,33.7359 340.5,64.5 Z M 124.5,50.5 C 126.45,55.7351 127.117,61.4018 126.5,67.5C 119.492,67.6663 112.492,67.4996 105.5,67C 112.279,61.9545 118.612,56.4545 124.5,50.5 Z M 317.5,77.5 C 325.099,76.5414 332.099,78.0414 338.5,82C 342.547,85.9728 344.547,90.8062 344.5,96.5C 335.5,96.5 326.5,96.5 317.5,96.5C 317.5,90.1667 317.5,83.8333 317.5,77.5 Z M 22.5,83.5 C 115.5,83.5 208.5,83.5 301.5,83.5C 297.583,107.083 307.416,116.75 331,112.5C 355.193,116.811 364.359,107.144 358.5,83.5C 365.256,83.5702 371.923,84.4035 378.5,86C 399.24,90.685 419.907,95.685 440.5,101C 453.784,104.539 466.784,108.872 479.5,114C 481.977,115.643 484.31,117.476 486.5,119.5C 470.791,120.062 455.125,120.896 439.5,122C 430.226,129.516 430.226,137.182 439.5,145C 445.5,150.333 451.5,155.667 457.5,161C 460.167,162.333 462.833,163.667 465.5,165C 475.777,166.37 486.111,166.87 496.5,166.5C 496.666,176.172 496.5,185.839 496,195.5C 495.215,197.286 494.049,198.786 492.5,200C 473.836,200.5 455.17,200.667 436.5,200.5C 440.464,175.808 433.464,154.975 415.5,138C 398.353,125.97 379.353,121.97 358.5,126C 334.868,131.632 319.701,146.132 313,169.5C 311.662,179.784 311.162,190.117 311.5,200.5C 283.833,200.5 256.167,200.5 228.5,200.5C 228.667,169.165 228.5,137.832 228,106.5C 225.567,100.552 221.4,99.052 215.5,102C 214.299,102.903 213.465,104.069 213,105.5C 212.5,137.165 212.333,168.832 212.5,200.5C 199.833,200.5 187.167,200.5 174.5,200.5C 176.679,146.179 150.679,121.346 96.5,126C 73.2804,131.553 58.1137,145.72 51,168.5C 49.9621,178.803 49.1288,189.136 48.5,199.5C 46.3703,198.533 44.3703,197.366 42.5,196C 35.8333,190 29.1667,184 22.5,178C 18.4488,174.725 16.4488,170.725 16.5,166C 23.9563,164.528 29.7897,160.695 34,154.5C 38.4061,145.964 40.7394,136.964 41,127.5C 39.413,124.244 36.913,122.077 33.5,121C 27.1754,120.5 20.8421,120.334 14.5,120.5C 14.3335,111.161 14.5002,101.827 15,92.5C 16.1133,88.2341 18.6133,85.2341 22.5,83.5 Z M 14.5,136.5 C 17.5,136.5 20.5,136.5 23.5,136.5C 22.9507,142.606 20.1174,147.273 15,150.5C 14.5008,145.845 14.3342,141.179 14.5,136.5 Z M 454.5,137.5 C 467.99,136.504 481.656,136.171 495.5,136.5C 496.314,141.119 496.647,145.786 496.5,150.5C 487.827,150.666 479.16,150.5 470.5,150C 465.005,146 459.671,141.834 454.5,137.5 Z M 101.5,140.5 C 120.828,137.552 136.995,143.218 150,157.5C 154.042,163.252 156.709,169.585 158,176.5C 158.5,184.493 158.666,192.493 158.5,200.5C 155.813,200.664 153.146,200.497 150.5,200C 152.19,180.684 144.19,167.018 126.5,159C 101.778,151.947 84.2776,160.113 74,183.5C 72.7111,189.088 72.2111,194.755 72.5,200.5C 69.8333,200.5 67.1667,200.5 64.5,200.5C 63.1696,187.319 65.0029,174.653 70,162.5C 77.3959,150.586 87.8959,143.253 101.5,140.5 Z M 364.5,140.5 C 406.203,138.872 424.869,158.872 420.5,200.5C 418.167,200.5 415.833,200.5 413.5,200.5C 412.532,169.364 396.532,154.864 365.5,157C 344.175,163.514 333.842,178.014 334.5,200.5C 331.833,200.5 329.167,200.5 326.5,200.5C 326.355,191.797 326.855,183.13 328,174.5C 333.139,155.53 345.306,144.197 364.5,140.5 Z M 108.5,171.5 C 130.514,173.539 138.681,185.206 133,206.5C 123.753,220.025 111.92,222.858 97.5,215C 83.7435,200.895 84.4101,187.561 99.5,175C 102.571,173.704 105.571,172.538 108.5,171.5 Z M 370.5,171.5 C 383.685,171.171 392.518,177.171 397,189.5C 398.82,209.678 389.653,219.511 369.5,219C 354.88,214.612 348.713,204.779 351,189.5C 354.519,180.143 361.019,174.143 370.5,171.5 Z M 202.5,216.5 C 237.833,216.5 273.167,216.5 308.5,216.5C 308.5,219.833 308.5,223.167 308.5,226.5C 273.167,226.5 237.833,226.5 202.5,226.5C 202.5,223.167 202.5,219.833 202.5,216.5 Z M 249.5,242.5 C 253.311,241.355 257.311,241.188 261.5,242C 257.651,246.466 253.651,246.632 249.5,242.5 Z M 253.5,265.5 C 257.14,266.15 260.473,267.65 263.5,270C 258.167,270.667 252.833,270.667 247.5,270C 249.747,268.723 251.747,267.223 253.5,265.5 Z M 148.5,328.5 C 157.324,327.343 166.324,327.176 175.5,328C 250.167,370.667 324.833,413.333 399.5,456C 390.5,456.667 381.5,456.667 372.5,456C 355.663,446.08 338.663,436.414 321.5,427C 311.132,426.05 308.132,430.383 312.5,440C 325.833,447.667 339.167,455.333 352.5,463C 351.54,464.419 350.707,465.919 350,467.5C 349.501,472.155 349.334,476.821 349.5,481.5C 286.833,481.5 224.167,481.5 161.5,481.5C 161.666,476.821 161.499,472.155 161,467.5C 160.293,465.919 159.46,464.419 158.5,463C 190.833,444.5 223.167,426 255.5,407.5C 265.833,413.333 276.167,419.167 286.5,425C 294.708,425.452 297.875,421.619 296,413.5C 247.214,384.523 198.048,356.19 148.5,328.5 Z M 206.5,328.5 C 211.975,327.511 217.642,327.178 223.5,327.5C 223.665,330.85 223.498,334.183 223,337.5C 217.686,334.094 212.186,331.094 206.5,328.5 Z M 239.5,327.5 C 250.167,327.5 260.833,327.5 271.5,327.5C 271.666,333.842 271.5,340.175 271,346.5C 265.963,349.7 260.796,352.7 255.5,355.5C 250.251,352.626 245.085,349.626 240,346.5C 239.5,340.175 239.334,333.842 239.5,327.5 Z M 287.5,327.5 C 293.176,327.334 298.843,327.501 304.5,328C 298.918,331.04 293.418,334.207 288,337.5C 287.502,334.183 287.335,330.85 287.5,327.5 Z M 336.5,327.5 C 345.173,327.334 353.84,327.5 362.5,328C 336.748,342.96 310.915,357.793 285,372.5C 280.5,370 276,367.5 271.5,365C 293.229,352.473 314.896,339.973 336.5,327.5 Z M 361.5,415.5 C 341.23,404.697 321.23,393.363 301.5,381.5C 308.251,377.374 315.085,373.374 322,369.5C 335.376,384.706 348.543,400.039 361.5,415.5 Z M 366.5,377.5 C 371.837,382.982 376.837,388.816 381.5,395C 378.573,397.382 375.739,399.882 373,402.5C 367.979,396.98 363.146,391.314 358.5,385.5C 361.494,383.173 364.161,380.506 366.5,377.5 Z M 225.5,390.5 C 230.009,392.919 234.342,395.586 238.5,398.5C 205.33,417.919 171.997,437.086 138.5,456C 129.5,456.667 120.5,456.667 111.5,456C 149.726,434.392 187.726,412.559 225.5,390.5 Z M 74.5,471.5 C 98.169,471.333 121.836,471.5 145.5,472C 146.451,475.057 146.784,478.223 146.5,481.5C 122.5,481.5 98.5,481.5 74.5,481.5C 74.5,478.167 74.5,474.833 74.5,471.5 Z M 365.5,471.5 C 389.167,471.5 412.833,471.5 436.5,471.5C 436.5,474.833 436.5,478.167 436.5,481.5C 412.5,481.5 388.5,481.5 364.5,481.5C 364.253,478.061 364.586,474.728 365.5,471.5 Z"/></g>
<g><path style="opacity:0.881" fill="#fff" d="M 142.5,103.5 C 149.175,103.334 155.842,103.5 162.5,104C 166.861,106.226 168.361,109.726 167,114.5C 166.167,116.667 164.667,118.167 162.5,119C 155.833,119.667 149.167,119.667 142.5,119C 137.776,116.565 136.276,112.731 138,107.5C 139.397,105.93 140.897,104.596 142.5,103.5 Z"/></g>
<g><path style="opacity:0.882" fill="#fff" d="M 248.5,103.5 C 255.615,103.075 262.615,103.575 269.5,105C 274.804,110.446 274.137,115.112 267.5,119C 260.086,119.89 252.753,119.557 245.5,118C 242.152,114.581 241.652,110.748 244,106.5C 245.409,105.219 246.909,104.219 248.5,103.5 Z"/></g>
<g><path style="opacity:0.862" fill="#fff" d="M 461.5,174.5 C 469.323,174.154 472.823,177.821 472,185.5C 469.565,190.224 465.731,191.724 460.5,190C 453.789,184.523 454.122,179.357 461.5,174.5 Z"/></g>
</svg>
